<?xml version="1.0" encoding="UTF-8"?>
<svg xmlns="http://www.w3.org/2000/svg" xmlns:xlink="http://www.w3.org/1999/xlink" viewBox="0 0 190.91 209.4">
  <defs>
    <style>
      .cls-1 {
        fill: url(#Gradiente_sem_nome_112);
        opacity: .62;
      }

      .cls-2 {
        fill: url(#radial-gradient-3);
      }

      .cls-2, .cls-3, .cls-4, .cls-5, .cls-6, .cls-7, .cls-8, .cls-9, .cls-10, .cls-11, .cls-12 {
        mix-blend-mode: screen;
      }

      .cls-13 {
        fill: url(#Gradiente_sem_nome_115);
        opacity: .44;
      }

      .cls-3 {
        fill: url(#radial-gradient-14);
      }

      .cls-14, .cls-15 {
        fill: #fff;
      }

      .cls-16 {
        fill: url(#Gradiente_sem_nome_111);
        opacity: .69;
      }

      .cls-17, .cls-18, .cls-19 {
        opacity: .5;
      }

      .cls-20 {
        fill: url(#Gradiente_sem_nome_121);
        opacity: .06;
      }

      .cls-4 {
        fill: url(#radial-gradient-7);
      }

      .cls-21 {
        fill: url(#radial-gradient-4);
      }

      .cls-22 {
        isolation: isolate;
      }

      .cls-23 {
        fill: url(#Gradiente_sem_nome_113);
        opacity: .56;
      }

      .cls-5 {
        fill: url(#radial-gradient-5);
      }

      .cls-6 {
        fill: url(#radial-gradient-8);
      }

      .cls-18 {
        fill: #e1ecf5;
      }

      .cls-7 {
        fill: url(#radial-gradient-13);
      }

      .cls-24 {
        fill: url(#Gradiente_sem_nome_108);
        opacity: .88;
      }

      .cls-25 {
        fill: url(#radial-gradient);
        mix-blend-mode: overlay;
        opacity: 0;
      }

      .cls-19 {
        fill: url(#Gradiente_sem_nome_114);
      }

      .cls-26 {
        fill: url(#Gradiente_sem_nome_109);
        opacity: .81;
      }

      .cls-27 {
        fill: url(#Gradiente_sem_nome_118);
        opacity: .25;
      }

      .cls-28 {
        fill: url(#Gradiente_sem_nome_119);
        opacity: .19;
      }

      .cls-29 {
        mix-blend-mode: multiply;
        opacity: .3;
      }

      .cls-8 {
        fill: url(#radial-gradient-10);
      }

      .cls-9 {
        fill: url(#radial-gradient-12);
      }

      .cls-30 {
        fill: url(#Gradiente_sem_nome_116);
        opacity: .38;
      }

      .cls-31 {
        fill: url(#radial-gradient-2);
      }

      .cls-32 {
        fill: url(#Gradiente_sem_nome_110);
        opacity: .75;
      }

      .cls-33 {
        fill: url(#Gradiente_sem_nome_120);
        opacity: .12;
      }

      .cls-10 {
        fill: url(#radial-gradient-9);
      }

      .cls-34 {
        fill: url(#Gradiente_sem_nome_117);
        opacity: .31;
      }

      .cls-35 {
        fill: url(#Gradiente_sem_nome_107);
        opacity: .94;
      }

      .cls-11 {
        fill: url(#radial-gradient-6);
      }

      .cls-36 {
        mask: url(#mask);
      }

      .cls-15 {
        opacity: .6;
      }

      .cls-12 {
        fill: url(#radial-gradient-11);
      }

      .cls-37 {
        fill: #263169;
      }

      .cls-38 {
        filter: url(#luminosity-invert-noclip);
      }
    </style>
    <radialGradient id="radial-gradient" cx="101.04" cy="266.14" fx="101.04" fy="266.14" r="64.67" gradientTransform="translate(-3.23 -226.75) rotate(.1) scale(1.01 1.6) skewX(.25)" gradientUnits="userSpaceOnUse">
      <stop offset="0" stop-color="#a6daf2"/>
      <stop offset=".71" stop-color="#2caae1"/>
      <stop offset="1" stop-color="#2075bb"/>
    </radialGradient>
    <radialGradient id="Gradiente_sem_nome_121" data-name="Gradiente sem nome 121" cx="100.92" cy="263.53" fx="100.92" fy="263.53" r="62.11" gradientTransform="translate(-3.02 -212.58) rotate(.09) scale(1.01 1.57) skewX(.23)" gradientUnits="userSpaceOnUse">
      <stop offset="0" stop-color="#9bcee8"/>
      <stop offset=".71" stop-color="#29a2d9"/>
      <stop offset="1" stop-color="#2170b5"/>
    </radialGradient>
    <radialGradient id="Gradiente_sem_nome_120" data-name="Gradiente sem nome 120" cx="100.8" cy="260.8" fx="100.8" fy="260.8" r="59.54" gradientTransform="translate(-2.82 -198.41) rotate(.08) scale(1.01 1.53) skewX(.21)" gradientUnits="userSpaceOnUse">
      <stop offset="0" stop-color="#91c1de"/>
      <stop offset=".71" stop-color="#2799d0"/>
      <stop offset="1" stop-color="#226baf"/>
    </radialGradient>
    <radialGradient id="Gradiente_sem_nome_119" data-name="Gradiente sem nome 119" cx="100.67" cy="257.93" fx="100.67" fy="257.93" r="56.98" gradientTransform="translate(-2.62 -184.24) rotate(.08) scale(1.01 1.49) skewX(.2)" gradientUnits="userSpaceOnUse">
      <stop offset="0" stop-color="#88b5d4"/>
      <stop offset=".71" stop-color="#2591c7"/>
      <stop offset="1" stop-color="#2466a9"/>
    </radialGradient>
    <radialGradient id="Gradiente_sem_nome_118" data-name="Gradiente sem nome 118" cx="100.55" cy="254.91" fx="100.55" fy="254.91" r="54.41" gradientTransform="translate(-2.42 -170.06) rotate(.07) scale(1.01 1.45) skewX(.18)" gradientUnits="userSpaceOnUse">
      <stop offset="0" stop-color="#7ea9cb"/>
      <stop offset=".71" stop-color="#2488bf"/>
      <stop offset="1" stop-color="#2562a3"/>
    </radialGradient>
    <radialGradient id="Gradiente_sem_nome_117" data-name="Gradiente sem nome 117" cx="100.42" cy="251.73" fx="100.42" fy="251.73" r="51.84" gradientTransform="translate(-2.22 -155.89) rotate(.07) scale(1 1.42) skewX(.16)" gradientUnits="userSpaceOnUse">
      <stop offset="0" stop-color="#749dc1"/>
      <stop offset=".71" stop-color="#2480b6"/>
      <stop offset="1" stop-color="#255d9e"/>
    </radialGradient>
    <radialGradient id="Gradiente_sem_nome_116" data-name="Gradiente sem nome 116" cx="100.29" cy="248.37" fx="100.29" fy="248.37" r="49.26" gradientTransform="translate(-2.02 -141.72) rotate(.06) scale(1 1.38) skewX(.14)" gradientUnits="userSpaceOnUse">
      <stop offset="0" stop-color="#6b91b8"/>
      <stop offset=".71" stop-color="#2478ae"/>
      <stop offset="1" stop-color="#265998"/>
    </radialGradient>
    <radialGradient id="Gradiente_sem_nome_115" data-name="Gradiente sem nome 115" cx="100.17" cy="244.82" fx="100.17" fy="244.82" r="46.69" gradientTransform="translate(-1.81 -127.55) rotate(.05) scale(1 1.34) skewX(.13)" gradientUnits="userSpaceOnUse">
      <stop offset="0" stop-color="#6285af"/>
      <stop offset=".71" stop-color="#2570a6"/>
      <stop offset="1" stop-color="#275493"/>
    </radialGradient>
    <radialGradient id="Gradiente_sem_nome_114" data-name="Gradiente sem nome 114" cx="100.04" cy="241.07" fx="100.04" fy="241.07" r="44.11" gradientTransform="translate(-1.61 -113.38) rotate(.05) scale(1 1.3) skewX(.11)" gradientUnits="userSpaceOnUse">
      <stop offset="0" stop-color="#5a7aa6"/>
      <stop offset=".71" stop-color="#25689e"/>
      <stop offset="1" stop-color="#28508d"/>
    </radialGradient>
    <radialGradient id="Gradiente_sem_nome_113" data-name="Gradiente sem nome 113" cx="99.91" cy="237.1" fx="99.91" fy="237.1" r="41.53" gradientTransform="translate(-1.41 -99.2) rotate(.04) scale(1 1.26) skewX(.1)" gradientUnits="userSpaceOnUse">
      <stop offset="0" stop-color="#526f9d"/>
      <stop offset=".71" stop-color="#266096"/>
      <stop offset="1" stop-color="#284b88"/>
    </radialGradient>
    <radialGradient id="Gradiente_sem_nome_112" data-name="Gradiente sem nome 112" cx="99.78" cy="232.88" fx="99.78" fy="232.88" r="38.94" gradientTransform="translate(-1.21 -85.03) rotate(.04) scale(1 1.23) skewX(.08)" gradientUnits="userSpaceOnUse">
      <stop offset="0" stop-color="#4b6594"/>
      <stop offset=".71" stop-color="#27598f"/>
      <stop offset="1" stop-color="#284783"/>
    </radialGradient>
    <radialGradient id="Gradiente_sem_nome_111" data-name="Gradiente sem nome 111" cx="99.65" cy="228.39" fx="99.65" fy="228.39" r="36.35" gradientTransform="translate(-1.01 -70.86) rotate(.03) scale(1 1.19) skewX(.07)" gradientUnits="userSpaceOnUse">
      <stop offset="0" stop-color="#445b8c"/>
      <stop offset=".71" stop-color="#285288"/>
      <stop offset="1" stop-color="#29437f"/>
    </radialGradient>
    <radialGradient id="Gradiente_sem_nome_110" data-name="Gradiente sem nome 110" cx="99.52" cy="223.61" fx="99.52" fy="223.61" r="33.76" gradientTransform="translate(-.81 -56.69) rotate(.02) scale(1 1.15) skewX(.05)" gradientUnits="userSpaceOnUse">
      <stop offset="0" stop-color="#3e5184"/>
      <stop offset=".71" stop-color="#284b81"/>
      <stop offset="1" stop-color="#293f7a"/>
    </radialGradient>
    <radialGradient id="Gradiente_sem_nome_109" data-name="Gradiente sem nome 109" cx="99.39" cy="218.5" fx="99.39" fy="218.5" r="31.17" gradientTransform="translate(-.6 -42.52) rotate(.02) scale(1 1.11) skewX(.04)" gradientUnits="userSpaceOnUse">
      <stop offset="0" stop-color="#38487d"/>
      <stop offset=".71" stop-color="#29447b"/>
      <stop offset="1" stop-color="#293b75"/>
    </radialGradient>
    <radialGradient id="Gradiente_sem_nome_108" data-name="Gradiente sem nome 108" cx="99.26" cy="213.04" fx="99.26" fy="213.04" r="28.57" gradientTransform="translate(-.4 -28.34) rotate(.01) scale(1 1.08) skewX(.03)" gradientUnits="userSpaceOnUse">
      <stop offset="0" stop-color="#324075"/>
      <stop offset=".71" stop-color="#293d74"/>
      <stop offset="1" stop-color="#283771"/>
    </radialGradient>
    <radialGradient id="Gradiente_sem_nome_107" data-name="Gradiente sem nome 107" cx="99.12" cy="207.17" fx="99.12" fy="207.17" r="25.97" gradientTransform="translate(-.2 -14.17) scale(1 1.04) skewX(.01)" gradientUnits="userSpaceOnUse">
      <stop offset="0" stop-color="#2d386f"/>
      <stop offset=".71" stop-color="#28366e"/>
      <stop offset="1" stop-color="#27346d"/>
    </radialGradient>
    <radialGradient id="radial-gradient-2" cx="101.08" cy="86.11" fx="101.08" fy="86.11" r="100.3" gradientUnits="userSpaceOnUse">
      <stop offset="0" stop-color="#2caae1"/>
      <stop offset=".13" stop-color="#2ba4db"/>
      <stop offset=".29" stop-color="#2a96cc"/>
      <stop offset=".47" stop-color="#287db3"/>
      <stop offset=".66" stop-color="#255b90"/>
      <stop offset=".83" stop-color="#233569"/>
      <stop offset=".86" stop-color="#233f73"/>
      <stop offset=".9" stop-color="#255b90"/>
      <stop offset=".96" stop-color="#2988bf"/>
      <stop offset="1" stop-color="#2caae1"/>
    </radialGradient>
    <radialGradient id="radial-gradient-3" cx="96.29" cy="78.01" fx="96.29" fy="78.01" r="101.65" gradientUnits="userSpaceOnUse">
      <stop offset="0" stop-color="#2caae1"/>
      <stop offset=".2" stop-color="#2eaae1"/>
      <stop offset=".35" stop-color="#38aee1"/>
      <stop offset=".48" stop-color="#48b3e2"/>
      <stop offset=".61" stop-color="#5fbbe3"/>
      <stop offset=".72" stop-color="#7cc4e4"/>
      <stop offset=".83" stop-color="#a0d0e5"/>
      <stop offset=".94" stop-color="#cadee7"/>
      <stop offset="1" stop-color="#e7e8e9"/>
    </radialGradient>
    <filter id="luminosity-invert-noclip" x="21.62" y="-.4" width="160.73" height="136.15" color-interpolation-filters="sRGB" filterUnits="userSpaceOnUse">
      <feColorMatrix result="cm" values="-1 0 0 0 1 0 -1 0 0 1 0 0 -1 0 1 0 0 0 1 0"/>
      <feFlood flood-color="#fff" result="bg"/>
      <feBlend in="cm" in2="bg"/>
    </filter>
    <radialGradient id="radial-gradient-4" cx="97.26" cy="26.07" fx="97.26" fy="26.07" r="115.49" gradientUnits="userSpaceOnUse">
      <stop offset="0" stop-color="#010101"/>
      <stop offset=".1" stop-color="#272727"/>
      <stop offset=".29" stop-color="#676767"/>
      <stop offset=".47" stop-color="#9d9d9d"/>
      <stop offset=".63" stop-color="#c7c7c7"/>
      <stop offset=".78" stop-color="#e6e6e6"/>
      <stop offset=".91" stop-color="#f8f8f8"/>
      <stop offset="1" stop-color="#fff"/>
    </radialGradient>
    <mask id="mask" x="21.62" y="-.4" width="160.73" height="136.15" maskUnits="userSpaceOnUse">
      <g class="cls-38">
        <rect class="cls-21" x="21.62" y="-.4" width="160.73" height="136.15"/>
      </g>
    </mask>
    <radialGradient id="radial-gradient-5" cx="991.11" cy="219.83" fx="991.11" fy="219.83" r="6.19" gradientTransform="translate(444.5 -785.62) rotate(98.56)" gradientUnits="userSpaceOnUse">
      <stop offset="0" stop-color="#fff" stop-opacity=".87"/>
      <stop offset="1" stop-color="#010101" stop-opacity="0"/>
    </radialGradient>
    <radialGradient id="radial-gradient-6" cx="974.32" cy="288.65" fx="974.32" fy="288.65" r="6.19" xlink:href="#radial-gradient-5"/>
    <radialGradient id="radial-gradient-7" cx="907.61" cy="154.5" fx="907.61" fy="154.5" r="6.19" xlink:href="#radial-gradient-5"/>
    <radialGradient id="radial-gradient-8" cx="138.09" cy="10.78" fx="138.09" fy="10.78" r="5.23" gradientTransform="matrix(1,0,0,1,0,0)" xlink:href="#radial-gradient-5"/>
    <radialGradient id="radial-gradient-9" cx="910.21" cy="260.6" fx="910.21" fy="260.6" r="6.19" xlink:href="#radial-gradient-5"/>
    <radialGradient id="radial-gradient-10" cx="925.26" cy="124.31" fx="925.26" fy="124.31" r="6.19" xlink:href="#radial-gradient-5"/>
    <radialGradient id="radial-gradient-11" cx="857.64" cy="241.42" fx="857.64" fy="241.42" r="3.99" xlink:href="#radial-gradient-5"/>
    <radialGradient id="radial-gradient-12" cx="919.54" cy="280.98" fx="919.54" fy="280.98" r="3.99" xlink:href="#radial-gradient-5"/>
    <radialGradient id="radial-gradient-13" cx="1002.41" cy="241.26" fx="1002.41" fy="241.26" r="3.99" xlink:href="#radial-gradient-5"/>
    <radialGradient id="radial-gradient-14" cx="966.73" cy="157.51" fx="966.73" fy="157.51" r="6.19" xlink:href="#radial-gradient-5"/>
  </defs>
  <g class="cls-22">
    <g id="Camada_1" data-name="Camada 1">
      <g id="Globe">
        <g id="shadown" class="cls-29">
          <path class="cls-25" d="m190.91,200.05c.01,5.02-41.13,9.2-91.9,9.35-50.77.14-91.94-3.81-91.95-8.83-.01-5.02,41.13-9.2,91.9-9.34,50.77-.14,91.94,3.81,91.95,8.83Z"/>
          <path class="cls-20" d="m187.23,200.1c.01,4.76-39.48,8.74-88.22,8.87-48.74.13-88.26-3.62-88.27-8.38-.01-4.76,39.48-8.73,88.22-8.87,48.74-.14,88.25,3.62,88.27,8.38Z"/>
          <path class="cls-33" d="m183.55,200.14c.01,4.51-37.83,8.27-84.54,8.4-46.7.13-84.57-3.42-84.59-7.93-.01-4.5,37.84-8.27,84.54-8.4,46.7-.13,84.57,3.42,84.58,7.92Z"/>
          <path class="cls-28" d="m179.86,200.19c.01,4.25-36.19,7.8-80.85,7.92-44.67.12-80.89-3.22-80.9-7.47-.01-4.25,36.19-7.8,80.86-7.92,44.67-.12,80.89,3.22,80.9,7.47Z"/>
          <path class="cls-27" d="m176.18,200.23c.01,4-34.54,7.33-77.17,7.45-42.64.12-77.2-3.02-77.22-7.02-.01-3.99,34.54-7.33,77.18-7.45,42.63-.12,77.2,3.02,77.21,7.02Z"/>
          <path class="cls-34" d="m172.5,200.28c.01,3.74-32.89,6.86-73.49,6.98-40.6.11-73.52-2.83-73.53-6.57-.01-3.74,32.89-6.86,73.49-6.98,40.6-.11,73.52,2.83,73.53,6.57Z"/>
          <path class="cls-30" d="m168.82,200.32c.01,3.48-31.24,6.4-69.81,6.5-38.57.11-69.84-2.63-69.85-6.11,0-3.48,31.25-6.39,69.81-6.5,38.57-.11,69.84,2.63,69.84,6.11Z"/>
          <path class="cls-13" d="m165.13,200.37c.01,3.23-29.6,5.93-66.13,6.03-36.53.1-66.15-2.43-66.16-5.66,0-3.23,29.6-5.93,66.13-6.03,36.53-.1,66.15,2.43,66.16,5.66Z"/>
          <path class="cls-19" d="m161.45,200.41c0,2.97-27.95,5.46-62.45,5.56-34.5.1-62.47-2.24-62.48-5.21,0-2.97,27.95-5.46,62.45-5.55,34.5-.1,62.47,2.24,62.48,5.21Z"/>
          <path class="cls-23" d="m157.77,200.46c0,2.72-26.3,4.99-58.76,5.08-32.46.09-58.79-2.04-58.79-4.75,0-2.71,26.3-4.99,58.77-5.08,32.46-.09,58.78,2.04,58.79,4.75Z"/>
          <path class="cls-1" d="m154.08,200.5c0,2.46-24.65,4.52-55.08,4.61-30.43.08-55.1-1.84-55.11-4.3,0-2.46,24.65-4.52,55.08-4.61,30.43-.08,55.1,1.84,55.11,4.3Z"/>
          <path class="cls-16" d="m150.4,200.55c0,2.2-23.01,4.06-51.4,4.14-28.4.08-51.42-1.64-51.42-3.85,0-2.2,23.01-4.05,51.4-4.13,28.39-.08,51.42,1.64,51.42,3.85Z"/>
          <path class="cls-32" d="m146.72,200.59c0,1.95-21.36,3.59-47.72,3.66-26.36.07-47.74-1.45-47.74-3.4,0-1.95,21.36-3.59,47.72-3.66,26.36-.07,47.73,1.45,47.74,3.39Z"/>
          <path class="cls-26" d="m143.03,200.64c0,1.69-19.71,3.12-44.04,3.19-24.33.07-44.05-1.25-44.06-2.94,0-1.69,19.71-3.12,44.04-3.19,24.33-.07,44.05,1.25,44.06,2.94Z"/>
          <path class="cls-24" d="m139.35,200.68c0,1.44-18.06,2.65-40.36,2.72-22.29.06-40.37-1.05-40.37-2.49,0-1.44,18.06-2.65,40.36-2.71,22.29-.06,40.37,1.05,40.37,2.49Z"/>
          <path class="cls-35" d="m135.67,200.73c0,1.18-16.42,2.18-36.67,2.24-20.26.06-36.68-.86-36.69-2.04,0-1.18,16.41-2.18,36.67-2.24,20.26-.06,36.68.85,36.69,2.03Z"/>
          <path class="cls-37" d="m131.98,200.77c0,.92-14.77,1.72-32.99,1.77-18.22.05-33-.66-33-1.58,0-.92,14.77-1.71,32.99-1.77,18.22-.05,33,.66,33,1.58Z"/>
        </g>
        <g>
          <g id="globe">
            <g>
              <path class="cls-31" d="m185.25,98.52c0,47.87-38.81,86.68-86.68,86.68S11.89,146.39,11.89,98.52,50.7,11.84,98.57,11.84s86.68,38.81,86.68,86.68Z"/>
              <path class="cls-2" d="m181.57,122.31c-1.15.03-2.64.57-2.66.96-.02.39-1.6,1.1-2.12,1.31-.52.21-1.53,1.82-1.76,2.35-.22.53-1.51.37-1.99.59-.47.21-1.45,1-1.46,1.48,0,.47-.27.42-.59-.12l-.63.66-.74.82c-.43,1.34-1.84,3.02-2.33,3.16-.49.13-.57,2.48-.57,3.42s.36,2.11.81,2.59l.1.75.16,1.5c-.26,1.15.62,2.18.87,2.39.25.19,2.4-.39,3.22-.59.34-.08.77-.27,1.17-.47,3.84-6.42,6.85-13.39,8.94-20.74-.16-.03-.31-.05-.46-.04Zm-143.39,2.23c-.12.23,1.43,1.83,2.03,2.37.6.55,1.88,3.15,2.14,4.01.26.86.11,2.25.02,2.58-.08.33.29,1.05.36,1.35.05.3-.54,2.86-.31,3.88.23,1.03-1.2,4.23-1.17,5.82.04,1.59.75,3.67,1.05,3.51.29-.15.39,1.45-.1,1.64-.49.2-1.05,1.46-.78,1.53.27.07-.02,1.31.06,1.82.07.5.5,3.81.59,4.63.09.82,1.27,2.83,1.52,3.51.24.69.5,1.97.59,2.17.1.2.22.4.23.41.02,0,.97.36,1.24.57.28.2,2.14.08,2.75-.05.61-.12.05-.68-.22-.98-.27-.3-.52-1.77-.83-1.92-.31-.14-.45-2.01-.17-2.43.28-.42,1.39-1.08,1.51-1.42.11-.35.15-1.98-.15-2.2-.3-.22.09-2.2-.14-3.18-.22-.98,1.7-1.87,1.82-2.65.11-.78,2.2-1.62,2.67-2,.47-.39.88-2.62.66-3.1-.23-.48.77-.87,1.22-.87s.94-.32,1.11-.32c.17,0,.7-.99.98-1.22.29-.23.88-2.58,1.39-2.97.52-.39.95-1.81.95-2.23s.79-1.66,1.06-2.03c.26-.37,2.21-1.27,2.56-1.41.35-.15.88-3.28,1.01-4.4.14-1.12.72-2.63.76-2.99.04-.37.66-.69.77-.81.12-.12.58-1.55.88-1.88.3-.33,1.38-1.69,1.4-2,.02-.31.19-1.09.37-1.74v-1.98c-.34-.94-1.39-2.13-1.65-1.86-.27.26-1.48-.84-2.09-1.07-.62-.23-2.15-.42-2.54-.42s-1.73-1.1-2.33-1.29c-.6-.18-2.13-.48-2.42-.66-.28-.18-.66-2.46-1.89-3.21-1.23-.75-3.4-2.49-3.64-3.13-.24-.64-2.61-1.98-3.35-2.38-.73-.41-1.84-.5-1.98-.35-.15.14-1.06-1.24-1.53-1.63-.48-.38-1.9-.71-1.96-.36-.07.35-1.01.17-1.23-.13-.22-.29-.95.12-1.3.24-.34.11-1.53,1.91-2.06,2.35-.55.43-1.19-.4-1.55-.56-.36-.15-1.72.27-2.09.54-.37.26-1.23-1.91-1.03-2.91.19-1-.9-2.99-1.75-3.04-.84-.05-1.1-2.14-.94-2.91.17-.77-1.53-1.25-1.95-1.3-.43-.06-1.49,1.03-1.66,1.55-.18.52-4.03-.71-3.57-3.01.44-2.3,2.27-4.69,2.72-4.97.45-.28,2.92-.42,3.47-.11.55.32,1.04,0,1.14-.14.09-.14,2.1.02,2.71.27.6.24,1.46,2.57,2.08,2.85.63.29.85-1.5.95-1.94.1-.44-.3-1.54-.45-1.85-.16-.31,1-3.13,1.95-3.61.93-.48,1.93-2.05,1.86-2.33-.09-.27.75-.49.97-.61.23-.11-.03-2.4.34-2.89.38-.49,2.14-1.54,2.7-1.77.56-.24.98-1.68.78-1.93-.21-.26,1.44-1.66,2.3-1.93.86-.26,1.6.49,1.39.61.17-.1,1.35-.71,1.85-1.04.59-.39.01-1.46-.37-1.78-.37-.31-.15-1.55.3-1.66.46-.11.86-1.18.73-1.41-.12-.24,1.89.19,2.65-.38.75-.57.22,1.36-.34,2.14-.55.78.41,1.51.77,1.37.36-.15.74.41.81.63.07.22.84-.23,1.35,0,.51.22.8-.69.85-1.11.03-.42-1.21-1.3-1.41-1.8-.19-.51-.28-3.45-.3-4.05-.03-.6-.84-1.58-1.1-1.4-.26.17-.79-1.57-1.21-1.94-.43-.38-.52-1.21-.5-1.49.02-.28-1.42-1.79-1.77-2.49-.34-.7-.83-.56-.86-.24-.04.32-1.04.36-1.45.33-.41-.04-.75-1.63-.75-2.23s-1.86-.7-2.16-1.19c-.31-.48-1.52-.25-1.71-.59-.2-.33-1.27-.64-1.48-.52-.22.13-.12,4.45-.32,5.61-.21,1.17-1.19,2.19-1.56,2.16-.35-.02-.14.83.11.75.26-.08-.7,1.27-.82,2.16-.13.88-1.02-.04-1.17-.84-.15-.8-1.03-1.89-1.19-1.61-.17.27-.77-.33-1.04-.16-.26.17-1.92-.96-2.59-1.33-.67-.35-1.04-2.41-1.43-2.59-.39-.19-.06-.43-.08-.74,0-.31,1.3-1.51,1.7-1.98.39-.48,1.83-2.35,2.4-2.75.57-.41,1.02-1.47.92-1.67-.1-.19,2.44-.98,3.12-1.22.68-.24,1.28-2.15,1.37-2.7.09-.55-.43-1.59-.75-1.73-.32-.14.96-.18,1.38.03.43.21,1.73-.39,2.25-.11.51.27,1.56.89,2.31,1.37l-.16,1.41-.31,2.38c-2,.83-2.58,2.26-1.88,2.23.7-.04,3.89,1.38,4.8,2.03.9.64,1.18-.93,1.45-1.46.27-.52.18-2.05-.03-2.35-.22-.3,1.04-.2,1.4.14.35.34.77-.35,1.04-.47.27-.12.4-1.43.56-1.7.14-.27-.6-.54-.62-.86-.02-.33-1.46-.95-1.92-1.18-.47-.22-.58-1.21-.35-1.38.23-.17-.16-1.43-.39-1.85-.22-.42-1.73-.75-2.23-.75s-1.01-1.16-1.3-1.33c-.29-.16-2.21-.38-2.68-.24-.48.14-1.35-1.36-2.15-.91-.8.46-1.63-.54-1.99-.74-.37-.2-2.24,1.82-2.23,3.24.02,1.42.73,2.79,1.03,2.83.29.04-.07,1.32-.4,1.69-.32.36-1.12-.39-.81-.71.29-.32-.82-1.81-1.2-2.41-.27-.44-1.25-.83-1.91-1.09-.39.42-.77.85-1.14,1.28.15.52.32,1.19.15,1.7-.28.87-1,1-1.05.62-.02-.17-.39-.29-.82-.35-10.52,12.61-17.52,28.25-19.53,45.39.42.48.89,1.05,1.02,1.45.24.76,1.57,1.27,1.82,1.42.24.15.33-1.46.15-1.88-.17-.42.32-.67.31-.36-.01.31,1.25,1.73,1.66,2.24.42.51.84,3.83,1.24,4.53.39.71,4.22,2.19,5.45,2.44,1.23.26,2.78,1.64,3.02,2.03.23.4,1.87.6,2.22.76.36.17,1.19,1.27,1.54,1.5.34.23.62.89.62,1.07s2.16.99,2.68,1.57,1.39.42,1.55.18c.17-.24.59,1.15.81,1.63.22.48.27,1.66.1,1.85-.17.18-.48,2.36-.85,2.79-.37.44-1.13,3.59-.97,4.21.17.63,1.18,1.91,1.62,2.11.43.19.25.87-.09.91-.35.04-.19,3.06.63,3.51.81.44,1.5,1.78,1.38,2.01Zm10.22-52.9h0s-.03.01,0,0Zm-5.93-36.63c1.04-.17,2.77-.46,2.89-.75.08-.24.1-.95-.1-1.2.17.01.36.02.5.02.39,0,1.05-2.16,1.47-2.67.42-.51,2.79-1.25,3.36-1.59.57-.35,1.81-1.54,2.28-1.68.48-.14,1.17-1.25,1.07-1.48-.1-.22,1.61-1.26,2.26-1.54.64-.28.99-1.04.74-1.07-.15-.02-3.78,1.88-7.1,3.76-3.79,2.57-7.35,5.45-10.69,8.58,1.04-.08,2.64-.27,3.32-.38Zm62.81,108.09c1.11-.65,3-3.45,3.62-4.03.62-.59,1.07-2.7,1.2-3.16.12-.46,1.07-1.21,1.42-1.31.35-.1,1.48-4.78,2.47-5.81.99-1.02,2.15-5.97,2.02-7.76-.13-1.77.64-5.17.87-5.98.24-.81,1.48-2.26,1.86-2.56.38-.3,2.77-3.83,3.54-5.1.76-1.27,1.5-4.05,1.35-4.7-.15-.65-1.81-1.11-2.12-.79-.31.32-1.87.59-2.37.59s-1.65-2.68-2.36-3.23c-.71-.55-1.35-3.62-1.76-4.2-.41-.58-1.56-2.05-1.92-2.39-.36-.33-.42-1.97-.5-2.41-.08-.44.69.3.83.94.14.65,1.97,3.27,2.54,4.15.57.88,2.07,3.68,2.45,4.57.38.87,3.72.43,4.81-.08,1.08-.52,2.43-1.38,2.49-1.68.05-.3,1.78-1.1,2.25-1.48.48-.38.91-2.39,1.22-2.71.31-.33-.25-2.24-.61-2.81-.36-.57-2.09-1.03-2.44-.8-.35.22-1.1-1.28-1.37-1.84-.26-.56-1.59-1.24-1.74-1.61-.14-.39.36-.98.57-1.11.21-.13,2.65,1.58,3.36,2.43.7.85,1.5,2.42,1.64,2.69.12.27,2.05.41,2.49.09.43-.32.92-.23,1.09.18l.61-.11,2.12-.33c1,1.08,1.29,2.02,1.27,2.24-.02.21.61,1.09,1.02,1.18.41.09.71,1.48.84,1.82.12.34,1.33,2.41,1.57,3.29.25.87,1.28,2.57,1.53,3.03.24.46.45,1.78.45,2.13s.77,1.07,1.25,1.04c.48-.03,1.45-3.06,1.68-4.19.22-1.13,1-2.06,1.22-2.06s.4-.63.4-.88,1.22-.21,1.34-.52c.1-.31.47-2.31.9-2.61.44-.3,1.99-1.32,2.54-1.51.54-.19,1.93,1.01,2.24,1.57.31.56.59,1.98.47,2.22-.12.23.73,1.46,1.48,1.44.73-.02.97.94.99,1.29.03.35,1.01,1.34,1.2,1.78.19.44.14,1.65,0,1.93-.14.27-.05,1.86.1,2.31.14.44,2.42,2.75,3.27,3.45.86.7,1.26-1.43.82-2.09-.43-.66-1.92-2.2-2.27-2.66-.35-.46-.41-2.31-.28-2.82.13-.52,1.3.28,1.79.66.49.38,1.13,1.21,1.14,1.49.02.27,3.07-1.44,3.17-3.29.11-1.85,1.13-3.95,1.22-4.43.1-.49-.3-1.16-.56-1.18-.26-.03.45-1.42,1.31-1.4.86.03,2.92-2.27,3.4-3.18.49-.91,1.47-1.66,1.58-1.78.12-.11.8-2.26.92-3.15.12-.89-.5-2.28-.58-2.74-.07-.46-.81-1.52-1.01-1.85-.19-.33-.37-1.58-.25-1.81.11-.23.88-.48.96-.68.09-.21.97-1.15.9-1.57-.07-.42.55.54.95.88.4.34.84,2.56,1.35,2.8.49.24,2.52-2.35,2.27-4.02-.25-1.67.59-3.81,1.08-4,.37-.14,1.32-1.5,1.97-2.47-4.46-12.87-11.85-24.37-21.39-33.71-.11,0-.23.01-.33,0l-.74-.16c-1.25-.26-1.97-1.6-1.76-1.9.07-.1.06-.32,0-.59-.69-.63-1.4-1.24-2.13-1.84-.58-.02-1.21,0-1.57-.02-.75-.03-2.37-.56-2.66-.85-.29-.29-1.27.25-1.32.79-.07.54-1.77.79-1.92,1.2-.17.41-1.05.44-1.22.21-.17-.23-1.75.56-2.53.67-.78.11-2.24.75-2.59.9-.35.15-1.18.97-1.32,1.3-.13.34-1.14.9-1.46,1.03-.33.13-.26,1.59.16,1.8.41.2-.78-.18-1.3-.45-.53-.26-1.11.63-1.27.93-.17.3-.65-.19-.63-.62.02-.44-1.3-.79-1.47-.45-.18.35-1.09-.11-1.47-.31-.38-.2-2.01,1.5-2.62,2.12-.61.61-3.5,1.08-4.05.85-.54-.23-1.08,1.28-.61,1.39.46.09-1.18-.08-2.08,0-.9.09-3.52,1.14-4.14,1.6-.63.47-1.13-.1-1.13-.46s-1-.69-1.29-.79c-.29-.1-.88,1.96-1.39,2.36-.52.4-1.14-1.61-2.37-1.94-1.22-.33-3.13-1.51-3.68-1.65-.54-.14-1.63-1.29-1.94-1.62-.31-.33-1.87-.6-2.37-.6s-2.12.93-2.55,1.29c-.45.37-1.09.29-1.31.43-.22.13-2.05,1.92-2.75,2.48-.71.56-1.95,2.97-2.35,3.55-.41.57-.99.68-1.23.7-.24.01-.43.66-.43.89s-2.1,1.33-2.32,2.29c-.22.95.2,3.13.2,3.91s.78,2.31,1.36,2.34c.58.03.28,1.32.12,1.68-.15.36.37.76.35,1.07-.01.31-1.47.74-1.92.91-.46.17-1.18,1.18-1.28,1.56-.08.33-1.48.57-1.94,1.01.11-.32.27-.77.4-1.01.27-.51-.1-1.4-.32-1.58-.22-.19-.32-2.71-.68-3.25-.35-.55-1.24-1.46-1.46-1.64-.22-.17.15-.84.28-1.12.13-.28-1.18-.44-1.54-.23-.36.2-.55,2.71-.7,3.39-.15.68.64,1.74.86,1.78.21.05.15,1.28-.3,1.32-.46.05-.88,1.84-.64,2.25.24.41-.33,1.22-.6,1.4-.27.18,1.75.08,2.68.05.92-.02,1.65.39,1.55.47-.1.08-1.77.33-2.07.72-.3.4-1.43,1.16-1.66,1.47-.22.3.37.98.86.95.48-.03,1.03,1.66,1.4,1.97.37.32.23,1.19.08,1.43-.18.24-2.43-.16-3.29.05-.86.21-1.95,2.03-2.02,2.71-.08.69.14,2.66.26,3.21.1.54,1.91.88,2.27,1.15.37.26,2.09,0,2.46.17.35.17,1.51-1.74,1.74-2.63.22-.89,2.06-2.52,2.44-3.13.38-.6,2.36-.53,2.85-.85.49-.31.22,1.5.45,2.5.23,1,2.13.88,1.85-.06-.28-.93.19-1.34.27-1,.08.33,1.9,1.08,2.24,1.6.34.53.25,1.65-.16,1.63-.4-.02-.42,1.23.01,1.36.42.14,1-1.4,1.46-1.62.46-.23.83-1.18.61-1.26-.2-.07.39-.93.65-.64.26.28-.97-1.86-1.75-2.64-.77-.78-.23-.43,1.22.77l1,1.4c.2.25.45,1.02.62,1.3l.24.41c.19.49.37,1.83.37,2.2s.78,1.07,1.26,1.04c.48-.03.84.23.74.24-.1.02.31.94.79.97.47.02.68-1.2.2-1.23-.47-.03-.4-1.79-.46-2.55-.05-.77.34-1.4.51-1.4s-.02,1.58,0,1.94c0,.36.2,1.08.43,1.59l.49.37,1.1.84c1.57-.47,3.68-.11,3.6.22-.09.32,1.16.4,1.24-.12.07-.51.13.02.13.38s-1.03,1.76-1.2,2.41c-.17.64-3.8.2-5.36.09-1.56-.12-3.87.41-4.05.88-.17.47-2.61-1.07-3.73-1.54-1.12-.48-2-2.18-2.23-2.4-.23-.23.19-.77.09-1.11-.11-.34-2.66-.41-3.4-.13-.74.27-4.57.68-5.48,1.07-.9.41-2.27-.02-2.69-.1-.42-.07-1.44,1.17-1.95,1.4-.52.23-1.17,1.99-1.45,3.94l-.7,1.35-.45.87c-1.27.96-2.66,4.17-3.07,4.81-.41.64-.73,5.26-.73,6.81s1.35,4.84,1.74,5.75c.38.91,2.73,2.91,3.51,3.4.79.47,3.33.53,4.16.53.83,0,1.78-.8,2.11-1.76l1.22.12.56.06c.03.68,1.83,1.23,2.28,1.47.44.24,1.63.06,1.98-.04.36-.1.75,3.09.49,4.01-.25.92.63,4.15.89,5.13.26.97,1.37,3.63,1.48,4.59.1.96-.65,4.13-.78,5.24-.12,1.12,1.39,4.23,1.79,5.3.39,1.07.71,3.37.71,3.9s1.66,3.76,2.03,5.08c.38,1.33,4.53,1.65,5.64,1Zm71.59-39.43c.11.24,1.15-.59,1.78-.69.63-.1,1.02-1.78.53-1.9-.5-.14-1.12-1.42-1.47-1.58-.35-.16-1.04.56-1.01,1.06.03.51-1.14.72-1.36,1.14-.22.42-.2.73.04.68.23-.04,1.39,1.04,1.49,1.27Zm-1.28,9.12c.31-.12-.04-1.77-.68-1.91-.65-.13-2.45,2.19-2.11,3.52.34,1.33.72,1.25.91.97.19-.28,1.26.18,1.58.29.31.1.31-.22,0-.71-.32-.5,0-2.04.31-2.16Zm-3.55-1.62c.07-.59.19-2.45.29-2.81.1-.37-1.01-1.43-1.56-1.62-.54-.19-2.3,3.61-3.55,4.28-1.26.68-1.71,2.98-1.39,3.52.33.53,2.96.82,3.42,1.22.46.4.97-.06,1.24-.13.28-.07.19-.24.09-.31-.11-.06.91-1.14,1.06-1.83.14-.68.32-1.72.39-2.31Zm-7.13,6.32c-.99-.37-2.14.21-2.23.59-.1.38,3.79,1,5.08,1.35,1.28.35,2.08.46,1.79.25-.29-.22-3.66-1.81-4.64-2.18Zm7.88-25.27c.31-.43-.43-2.46-.81-2-.37.46-.1,1.64.02,2.06.12.41.48.38.79-.06Zm2.34,4.36c.22-.52-.28-1.1-1.12-1.28-.84-.17-.72,2.35-.35,2.68.36.31,1.23-.87,1.47-1.4Zm4.37,15.66c1.01.71,3.25.38,3.32-.98-.99-.65-3.41-.54-3.32.98Zm-.54-30.99c-.42.29-.64,1.04-.51,1.34-.06,0-.11,0-.17,0-.33,0-.37,1.32-.02,1.55.34.23,1.19-1.03,1.64-1.33.44-.3,1.33-.48,1.46-.39.14.1.92-.14,1.74-.52.15-.07.31-.29.49-.59-.2-.97-.43-1.92-.66-2.88-.42.31-.89.64-1.11.84-.44.4-2.31,1.62-2.86,1.99Zm-22.96,26.66s0,0,.01,0c-.18-.13-.2-.14-.01,0Zm6.26,5.83c-.36-.82-1.57-2.21-2.67-3.09l-.42-.69-.46-.76c-.41-.84-1.66-1.48-1.77-1.72-.11-.24-.5.72-.93.44.22.15.68.48,1.34.95,1.17.84,3.42,6.49,3.93,6.89.51.4,1.34-1.19.98-2.02Zm-17.93-9.14c-.31.64,1.66,2,1.82,1.69.16-.31-.25-1.88-.61-2.23-.35-.34-.89-.1-1.21.54Zm-26.24,30.21c.08.67,1.44,1.2,1.83,1.09.41-.11,1.51-2.14,1.66-2.73.16-.59.28-1.85.28-2.15s.18-.97.33-1.06c.15-.08.4-.77.55-1.53.15-.77-.82-4.34-.85-4.96-.02-.63-.73.32-.91.96-.19.63-1.96,1.93-2.36,2.46-.39.54-.83,2.36-.67,2.68.15.31-.16,1.56-.34,1.9-.17.35.4,2.65.47,3.33Zm-64.02,24.69h1.19c.21-1.29-1.26-1.08-1.19,0ZM85.88,25.15c-.5.06-1.79-.2-2.02-.44-.22-.24-2.16-.45-2.72-.21-.56.24-.18-1.37.6-1.54.78-.18.12-1.28-.71-1.28-.83,0-2.88-.31-3.36-.2-.48.1-1.42-.34-1.76-.39-.34-.05-2.8.74-3.96.68-1.17-.05-4.02.07-4.64.24-.63.16-1.08,1.38-.99,1.8.09.43-2.76.42-3.66.44-.9.01-5.69,1.03-6.94,1.72-1.25.69-2.23,2.44-1.81,2.48.41.03-.69,1.03-1.37,1.26-.67.23-2.27.33-2.65.71-.37.38.4.64.55.89.15.25.59-.22,1.02.02.42.24,1.81.35,2.18.49.37.15-1.18.44-1.91.5-.73.05-.57,1.49.03,1.68.6.2,2.13.41,2.29.17.16-.25,1.82.27,2.58.36.74.08,1.32,1.96,1.55,2.37.23.41.28,1.84.22,2.25-.05.41,1.33,1.17,1.58.91.24-.26.17.65-.38.6-.55-.05-.19,1.54.49,1.77.68.23.21,1.21-.18,1.51-.4.29-.18,1.23-.59,1.57-.4.33,1.43,3.5,1.42,5.13-.01,1.63,1.01,2.96,1.39,2.96s1.73.33,1.91.68c.18.35.82-.24,1.08-.51.25-.26.8-1.05,1.21-1.74.41-.69,1.33-3.96,1.45-4.31.12-.35,1.66-.13,2.01-.31.35-.18,1.35-.97,1.64-1.21.29-.24,2.47-1.16,3.08-1.59.59-.43,1.59-2.28,2.05-2.68.47-.4-.24-.28-.82-.66-.58-.38-.32-.85-.15-1.02.17-.18,1.93.29,2.54.53.61.24,1.77-.6,1.33-.92-.45-.32-.21-.31,0-.18.21.13.44-1.07.21-1.3-.24-.23,1.78-1.7,1.43-3.1-.35-1.39.55-2.82,1.09-2.84.55-.01.38-1.57-.26-1.72-.65-.14-.04-.29.21-.51.24-.22.55-1.61.41-1.87-.15-.27.99-.57,1.19-.89.21-.31,1.5-.94,1.97-1.04.46-.11.7-1.32.21-1.27Zm11.31,1.13c-.62-.21-1.87.48-1.72.86.17.39-1.02-.5-1.85-.07-.83.43-1.05,1.88-.67,2.07.38.19.66,1.34.66,1.56.01.23,1.61.06,2.02-.27.4-.34.35,1.17-.05,1.57-.4.41.14,1.22.59,1.29.44.06,1.05,1.11,1.51,1.1.45,0,1.23-1.76,1.41-2.42.18-.65,1.69-.14,2.39.07.69.2.95-2.42.2-2.82-.75-.39-1.69-.2-2.01-.5-.31-.3-.84-.58-1.19-.63-.35-.05-.68-1.6-1.29-1.81Zm6.07,1.26c1.22.17,2.6-.83,2.9-1.12.3-.28-3.39-1.04-4.8-1.08-1.41-.04-2.54.15-2.52.43.02.27,3.19,1.6,4.42,1.78Zm-22.36,33.14c-.32-.14-.5,1.08-.43,1.54.08.46,1.2.42,1.69.34.48-.08.85-.47.83-.87-.03-.4-.71-2.2-.98-2.2s-.79,1.33-1.12,1.2Zm3.63-14.1c-.25-.45-2.17-.39-2.64-.42-.46-.03-1.9-.5-2.18-.81-.26-.3-.48,1.18-.91,1.38-.44.19.22.47.4.32.18-.16-.01.77-.21,1.08-.2.32,1.28.54,1.45,1.02.16.48.77.79,1.35.7.58-.1,1.74-.7,2.14-.74.41-.04.86-2.09.6-2.53Zm40.36-11.01c.66-.66,3.38-1.56,3.69-2.24.3-.68-.19-1.24-.47-1.24s-.62.34-.68.45c-.07.12-3.19.85-4.14,1.31-.97.46-2.07,1.17-2.47,1.58-.4.41-1.06,3.5-1.3,3.85-.23.35,1.04,1.61,1.6,1.96.56.34,1.33.16,1.55.1.21-.07-.29-2.23-.58-2.98-.3-.75,2.14-2.11,2.79-2.78Zm-3.34-8.05c1.03,1.02,1.59-.45,2.72-.31-.02-2.07-2.82-1.36-2.72.31Zm19.95.39c-.03.38,2.84.69,3.68.54.84-.14-.18-1.45-1.4-1.37-1.22.08-2.24.46-2.27.84Zm-103.9,21.28c-.3.28-.04,1.69.54,1.73.57.04,1.49-2.12,2.19-1.69.7.43,1.18.61,1.06.37-.12-.23-2.12-1.1-2.37-1.27-.25-.15-1.12.58-1.43.85Zm7.34,47.65c0,.24,1.25.2,1.46-.18.2-.38.09-.7-.24-.7s-1.21.64-1.21.88Zm-5.57-2.06c.6-.11.32.86.46,1.2.15.35,1.58.63,1.87.86.29.23,1.03-.44,1.6-.37.57.07-.19-1.99-1.16-1.93-.96.06-1.72-.87-1.95-.99-.24-.1-1.34-.78-1.67-1.04-.31-.26-2.77-.48-3.6-.48s-1.75.85-1.88,1.13c-.14.28,1.32.47,1.73.25.42-.22,2.36.25,2.76.71.4.46,1.22.75,1.83.64Zm-2.62,2.06c0,.24,1.26.09,1.56.1.31,0,.3-.2-.02-.46-.32-.25-1.54.12-1.54.36Zm.89-6.5c-.33-.13-.59.39-.59.63s.18.44.4.44.52-.94.19-1.08Zm2.65.2c-.11-.24-.65-.44-.81-.44s-.28.42-.25.93c.03.51,1.17-.25,1.07-.49Zm1.91,2.94c.51-.25.57-.86.27-.82-.3.03-.86-.88-1.19-1.01-.33-.13-.6.55-.6.84s.19.5.41.44c.23-.05.59.79,1.11.55Zm141.08,19.84c-.26.14-1.54.29-1.7.04-.17-.25-.42.52-.69.64-.27.12-.12.79.28.58.29-.14,1.49.53,2.47,1.14.2-.97.36-1.95.53-2.94-.35.19-.72.44-.88.53Z"/>
              <g class="cls-36">
                <path class="cls-18" d="m163.45,67.67c0,30.29-29.21,54.84-65.24,54.84s-65.24-24.55-65.24-54.84S62.18,12.83,98.21,12.83s65.24,24.55,65.24,54.84Z"/>
              </g>
            </g>
            <path class="cls-15" d="m120.54,14.35c-1.43-.57-2.91-1.03-4.43-1.37-13.45-3-27.79,3.89-40.09,17.46-12.12,13.37-22.32,33.27-27.71,56.54,0,.03-.02.06-.02.1-5.37,23.26-4.94,45.54.11,62.74,4.63,15.76,13.14,27.32,24.65,31.63-11.2-4.48-19.5-15.91-24.05-31.4-5.05-17.2-5.49-39.48-.12-62.74,0-.03.01-.06.02-.1,5.39-23.27,15.58-43.17,27.71-56.54,12.31-13.57,26.64-20.47,40.09-17.46,1.31.29,2.59.68,3.83,1.14Z"/>
            <path class="cls-15" d="m14.34,121.82c.05,1.53.22,3.06.52,4.59,2.62,13.48,14.64,23.82,31.94,29.65,17.05,5.74,39.29,7.1,62.69,2.74.03,0,.06-.01.1-.02,23.39-4.37,43.55-13.66,57.25-25.14,12.54-10.51,19.7-22.9,19.05-35.13.37,12.02-6.75,24.16-19.08,34.49-13.7,11.48-33.86,20.76-57.25,25.14-.03,0-.06.01-.1.02-23.4,4.36-45.64,3-62.69-2.74-17.3-5.82-29.32-16.16-31.95-29.65-.25-1.31-.41-2.63-.49-3.95Z"/>
            <path class="cls-15" d="m45.95,29.5c-1.38.68-2.71,1.48-3.98,2.39-11.21,8.01-15.64,23.29-13.74,41.51,1.87,17.95,9.89,38.82,23.62,58.36.02.03.04.05.06.08,13.74,19.52,30.62,34.06,46.8,41.77,14.83,7.07,29.11,8.44,40,2.75-10.81,5.35-24.86,3.91-39.42-3.04-16.18-7.72-33.06-22.25-46.8-41.77-.02-.03-.04-.05-.06-.08-13.73-19.54-21.76-40.41-23.62-58.36-1.9-18.22,2.53-33.49,13.74-41.51,1.09-.78,2.23-1.48,3.41-2.09Z"/>
            <g class="cls-17">
              <path class="cls-14" d="m51.74,85.39c-5.34,0-9.68-4.34-9.68-9.68s4.34-9.68,9.68-9.68,9.68,4.34,9.68,9.68-4.34,9.68-9.68,9.68Zm0-19.27c-5.29,0-9.59,4.3-9.59,9.59s4.3,9.59,9.59,9.59,9.59-4.3,9.59-9.59-4.3-9.59-9.59-9.59Z"/>
              <path class="cls-14" d="m51.74,91.01c-8.44,0-15.3-6.87-15.3-15.3s6.86-15.3,15.3-15.3,15.3,6.87,15.3,15.3-6.87,15.3-15.3,15.3Zm0-30.46c-8.36,0-15.16,6.8-15.16,15.16s6.8,15.16,15.16,15.16,15.16-6.8,15.16-15.16-6.8-15.16-15.16-15.16Z"/>
              <path class="cls-14" d="m51.74,80.5c-2.64,0-4.79-2.15-4.79-4.79s2.15-4.78,4.79-4.78,4.78,2.15,4.78,4.78-2.15,4.79-4.78,4.79Zm0-9.49c-2.6,0-4.71,2.11-4.71,4.71s2.11,4.71,4.71,4.71,4.71-2.11,4.71-4.71-2.11-4.71-4.71-4.71Z"/>
            </g>
            <g class="cls-17">
              <path class="cls-14" d="m156.67,97.73c-4.86,0-8.81-3.95-8.81-8.81s3.95-8.81,8.81-8.81,8.81,3.95,8.81,8.81-3.95,8.81-8.81,8.81Zm0-17.53c-4.81,0-8.72,3.91-8.72,8.72s3.91,8.72,8.72,8.72,8.72-3.91,8.72-8.72-3.91-8.72-8.72-8.72Z"/>
              <path class="cls-14" d="m156.67,101.96c-7.19,0-13.03-5.85-13.03-13.03s5.85-13.03,13.03-13.03,13.03,5.85,13.03,13.03-5.85,13.03-13.03,13.03Zm0-25.94c-7.12,0-12.91,5.79-12.91,12.91s5.79,12.91,12.91,12.91,12.91-5.79,12.91-12.91-5.79-12.91-12.91-12.91Z"/>
              <path class="cls-14" d="m156.67,94.21c-2.91,0-5.28-2.37-5.28-5.28s2.37-5.28,5.28-5.28,5.28,2.37,5.28,5.28-2.37,5.28-5.28,5.28Zm0-10.48c-2.87,0-5.2,2.33-5.2,5.2s2.33,5.2,5.2,5.2,5.2-2.33,5.2-5.2-2.33-5.2-5.2-5.2Z"/>
            </g>
            <g class="cls-17">
              <path class="cls-14" d="m144.28,153.27c-3.71,0-6.73-3.02-6.73-6.73s3.02-6.73,6.73-6.73,6.73,3.02,6.73,6.73-3.02,6.73-6.73,6.73Zm0-13.4c-3.68,0-6.67,2.99-6.67,6.67s2.99,6.67,6.67,6.67,6.67-2.99,6.67-6.67-2.99-6.67-6.67-6.67Z"/>
              <path class="cls-14" d="m144.28,150.58c-2.23,0-4.04-1.81-4.04-4.04s1.81-4.04,4.04-4.04,4.04,1.81,4.04,4.04-1.81,4.04-4.04,4.04Zm0-8.01c-2.19,0-3.97,1.78-3.97,3.97s1.78,3.97,3.97,3.97,3.97-1.78,3.97-3.97-1.78-3.97-3.97-3.97Z"/>
            </g>
            <g class="cls-17">
              <path class="cls-14" d="m79.64,170.81c-5.2,0-9.43-4.23-9.43-9.43s4.23-9.43,9.43-9.43,9.43,4.23,9.43,9.43-4.23,9.43-9.43,9.43Zm0-18.77c-5.15,0-9.34,4.19-9.34,9.34s4.19,9.34,9.34,9.34,9.34-4.19,9.34-9.34-4.19-9.34-9.34-9.34Z"/>
              <path class="cls-14" d="m79.64,167.03c-3.12,0-5.66-2.54-5.66-5.66s2.54-5.66,5.66-5.66,5.66,2.54,5.66,5.66-2.54,5.66-5.66,5.66Zm0-11.23c-3.07,0-5.57,2.5-5.57,5.57s2.5,5.57,5.57,5.57,5.57-2.5,5.57-5.57-2.5-5.57-5.57-5.57Z"/>
            </g>
            <path class="cls-15" d="m149.38,31.37C142.78,12.47,132.61,1.38,120.75.14c-8.71-.91-17.31,2.53-25.56,11.75.33-.02.66-.03,1-.05C104.15,3.15,112.36-.01,120.67.86c11.57,1.21,21.52,12.13,28.02,30.76,6.66,19.06,8.83,43.75,6.1,69.53-2.73,25.77-10.01,49.48-20.52,66.74-10.26,16.87-22.28,25.5-33.85,24.29-5.37-.56-10.44-3.28-14.98-7.93-.44-.06-.83-.12-1.16-.17,4.82,5.18,10.27,8.21,16.07,8.81.74.08,1.48.12,2.22.12,11.16,0,22.55-8.69,32.32-24.75,10.56-17.36,17.88-41.16,20.62-67.04,2.74-25.87.56-50.68-6.13-69.83Z"/>
            <path class="cls-15" d="m167.81,17.25c-9.01-9.01-25.13-9.95-45.37-2.65-.29.1-.58.22-.87.33.41.12.84.25,1.24.36,19.89-7.16,35.68-6.27,44.45,2.5,8.79,8.79,9.67,24.61,2.46,44.56-7.37,20.41-22.28,42.51-41.99,62.22-19.71,19.71-41.81,34.62-62.22,41.99-19.94,7.2-35.77,6.32-44.56-2.47-7.72-7.72-9.33-21.16-4.59-37.97-.1-.31-.3-.91-.42-1.3-5.21,17.6-3.63,31.73,4.46,39.82,5,5,12.19,7.52,21.06,7.52,7.11,0,15.3-1.62,24.31-4.87,20.52-7.41,42.71-22.38,62.5-42.17l.02-.03c19.78-19.78,34.74-41.97,42.15-62.48,7.31-20.24,6.37-36.35-2.65-45.37Z"/>
            <path class="cls-15" d="m162.41,91.37c-17.1-9.66-40.36-16.03-65.49-17.93h-.06c-25.11-1.89-49.04.91-67.38,7.89C11.37,88.23.92,98.33.06,109.78c-.83,11.02,7.31,22.14,22.97,31.46l-.66-1.21C7.61,130.98-.04,120.34.75,109.83c.84-11.16,11.13-21.05,28.98-27.84,18.26-6.95,42.11-9.74,67.14-7.85h.06c25.01,1.9,48.14,8.23,65.14,17.84,16.63,9.39,25.32,20.71,24.47,31.88-.58,7.67-5.45,14.81-14.56,20.77-.25.39-.61.92-.94,1.42,2.4-1.48,4.32-3.03,6.21-4.65,6.09-5.23,9.5-11.17,9.98-17.48.87-11.45-7.95-23-24.83-32.54Z"/>
          </g>
          <g>
            <path class="cls-5" d="m78.72,167.91c-3.38-.51-5.71-3.67-5.2-7.05.51-3.38,3.66-5.71,7.04-5.2,3.38.51,5.71,3.67,5.2,7.05-.51,3.38-3.67,5.71-7.05,5.2Z"/>
            <path class="cls-11" d="m13.16,141.06c-3.38-.51-5.71-3.67-5.2-7.05.51-3.38,3.66-5.71,7.04-5.2,3.38.51,5.71,3.67,5.21,7.05-.51,3.38-3.67,5.71-7.05,5.2Z"/>
            <path class="cls-4" d="m155.74,95.05c-3.38-.51-5.71-3.67-5.2-7.05.51-3.38,3.66-5.71,7.04-5.2,3.38.51,5.71,3.67,5.21,7.05-.51,3.38-3.67,5.71-7.05,5.2Z"/>
            <path class="cls-6" d="m137.16,17.08c-3.38-.51-5.71-3.67-5.2-7.05.51-3.38,3.66-5.71,7.04-5.2,3.38.51,5.71,3.67,5.21,7.05-.51,3.38-3.67,5.71-7.05,5.2Z"/>
            <path class="cls-10" d="m50.44,81.84c-3.38-.51-5.71-3.67-5.2-7.05.51-3.38,3.66-5.71,7.04-5.2,3.38.51,5.71,3.67,5.21,7.05-.51,3.38-3.67,5.71-7.05,5.2Z"/>
            <path class="cls-8" d="m182.97,117c-3.38-.51-5.71-3.67-5.2-7.05.51-3.38,3.66-5.71,7.04-5.2,3.38.51,5.71,3.67,5.21,7.05-.51,3.38-3.67,5.71-7.05,5.2Z"/>
            <path class="cls-12" d="m77.56,30.53c-2.18-.33-3.67-2.36-3.35-4.54.33-2.18,2.36-3.68,4.53-3.35,2.18.33,3.68,2.36,3.35,4.54-.33,2.18-2.36,3.68-4.54,3.35Z"/>
            <path class="cls-9" d="m29.22,85.85c-2.18-.33-3.67-2.36-3.35-4.54.33-2.18,2.36-3.68,4.53-3.35,2.18.33,3.68,2.36,3.35,4.54-.33,2.18-2.36,3.68-4.54,3.35Z"/>
            <path class="cls-7" d="m56.17,173.71c-2.18-.33-3.67-2.36-3.35-4.54.33-2.18,2.36-3.68,4.53-3.35,2.18.33,3.68,2.36,3.35,4.54-.33,2.18-2.36,3.68-4.54,3.35Z"/>
            <path class="cls-3" d="m143.97,153.06c-3.38-.51-5.71-3.67-5.2-7.05.51-3.38,3.66-5.71,7.04-5.2,3.38.51,5.71,3.67,5.21,7.05-.51,3.38-3.67,5.71-7.05,5.2Z"/>
          </g>
        </g>
      </g>
    </g>
  </g>
</svg>